# xmcd CD database file
#
# Track frame offsets:
#	151
#	15938
#	30463
#	44978
#	61371
#	75818
#	86807
#	98378
#	115815
#	126520
#	141475
#
# Disc length: 2073 seconds
#
# Revision: 0
# Processed by: cddbd v1.4PL0 Copyright (c) Steve Scherf et al.
# Submitted via: CdAid 2001.05.15.01
#
DISCID=8908170b
DTITLE=Daniel Smith - Southside Boogie
DYEAR=1900
DGENRE=
TTITLE0=Southside boogie
TTITLE1=How many more years
TTITLE2=The doctor's orders
TTITLE3=C.C. Rider
TTITLE4=On the outside
TTITLE5=Honey dripper
TTITLE6=Oh baby
TTITLE7=Whitsunday blues
TTITLE8=Piet's boogie woogie
TTITLE9=Key to the highway
TTITLE10=Rotten row
EXTD=www.hants.org/daniel.smith
EXTT0=
EXTT1=
EXTT2=
EXTT3=
EXTT4=
EXTT5=
EXTT6=
EXTT7=
EXTT8=
EXTT9=
EXTT10=
PLAYORDER=
